<?xml version="1.0" standalone="no"?>
<!DOCTYPE svg PUBLIC "-//W3C//DTD SVG 20010904//EN"
 "http://www.w3.org/TR/2001/REC-SVG-20010904/DTD/svg10.dtd">
<svg version="1.0" xmlns="http://www.w3.org/2000/svg"
 width="1917.000000pt" height="1917.000000pt" viewBox="0 0 1917.000000 1917.000000"
 preserveAspectRatio="xMidYMid meet">
<metadata>
Created by potrace 1.14, written by Peter Selinger 2001-2017
</metadata>
<g transform="translate(0.000000,1917.000000) scale(0.100000,-0.100000)"
fill="#000000" stroke="none">
<path d="M9415 18663 c-223 -38 -441 -172 -558 -343 -17 -25 -34 -47 -37 -50
-4 -3 -10 -15 -14 -27 -4 -13 -12 -23 -17 -23 -5 0 -9 -9 -9 -19 0 -11 -4 -22
-9 -25 -10 -7 -58 -136 -66 -178 -3 -16 -7 -39 -10 -52 -3 -14 -7 -49 -9 -79
-2 -30 -6 -60 -10 -66 -4 -6 -3 -11 1 -11 5 0 8 -17 8 -37 0 -21 3 -58 7 -83
4 -25 10 -60 13 -79 3 -18 10 -41 15 -51 6 -10 10 -28 10 -39 0 -10 5 -21 12
-23 6 -2 -58 -53 -141 -114 -84 -60 -162 -117 -174 -126 -12 -10 -58 -43 -102
-75 -44 -31 -82 -60 -85 -64 -3 -3 -16 -12 -29 -19 -14 -7 -30 -17 -35 -22
-29 -23 -56 -44 -76 -58 -12 -8 -52 -37 -90 -65 -37 -27 -78 -57 -90 -65 -12
-8 -29 -21 -38 -28 -9 -7 -46 -34 -82 -59 -265 -192 -487 -353 -495 -360 -16
-13 -255 -186 -280 -203 -37 -24 -1058 -766 -1075 -781 -9 -8 -36 -27 -60 -44
-25 -16 -46 -33 -48 -37 -2 -5 -8 -8 -14 -8 -5 0 -16 -6 -23 -12 -23 -21 -37
-32 -90 -68 -27 -19 -56 -41 -65 -47 -8 -7 -127 -94 -265 -193 -137 -99 -261
-189 -273 -200 -13 -11 -28 -20 -33 -20 -5 0 -9 -4 -9 -10 0 -5 -6 -10 -14
-10 -8 0 -16 -4 -18 -8 -1 -5 -41 -35 -86 -68 -92 -65 -123 -87 -304 -218 -68
-49 -125 -92 -128 -95 -3 -3 -13 -10 -22 -16 -9 -5 -87 -62 -173 -125 -87 -63
-164 -119 -174 -125 -9 -5 -18 -13 -21 -16 -3 -3 -52 -39 -110 -79 -58 -41
-107 -77 -110 -80 -10 -11 -541 -395 -560 -405 -11 -5 -20 -13 -20 -17 0 -5
-4 -8 -9 -8 -5 0 -20 -9 -33 -20 -12 -11 -178 -132 -368 -270 -190 -137 -390
-282 -444 -322 -54 -40 -125 -91 -156 -113 -113 -78 -275 -199 -278 -207 -2
-4 -8 -8 -13 -8 -4 0 -43 -26 -86 -58 -43 -32 -103 -76 -134 -98 -31 -21 -101
-72 -157 -112 l-100 -73 -44 30 c-214 144 -513 186 -758 104 -134 -44 -316
-163 -376 -245 -13 -18 -24 -28 -24 -22 0 5 -10 -6 -23 -25 -12 -19 -30 -46
-39 -60 -18 -27 -81 -142 -83 -151 -1 -8 -26 -83 -32 -100 -4 -8 -7 -18 -8
-22 -2 -5 -3 -9 -5 -10 -1 -2 -3 -21 -5 -43 -1 -22 -4 -40 -5 -40 -1 0 -4 -20
-5 -45 -2 -25 -4 -47 -5 -50 -1 -3 -2 -9 -1 -13 1 -5 4 -41 6 -80 5 -80 11
-115 25 -152 5 -14 7 -25 4 -25 -4 0 0 -7 7 -17 8 -9 13 -19 11 -22 -6 -10 21
-81 30 -81 5 0 6 -4 3 -10 -3 -5 -1 -10 4 -10 6 0 11 -3 10 -7 -2 -16 14 -53
23 -53 5 0 6 -4 3 -10 -3 -5 -2 -10 3 -10 5 0 15 -12 23 -27 29 -55 133 -163
214 -223 108 -80 297 -154 418 -163 37 -3 41 -6 57 -50 10 -26 16 -47 13 -47
-3 0 -1 -6 4 -12 5 -7 15 -33 22 -58 8 -25 16 -52 19 -60 3 -8 6 -17 6 -20 1
-3 5 -11 9 -17 5 -7 6 -13 2 -13 -3 0 1 -13 10 -30 9 -16 13 -30 9 -30 -4 0
-1 -7 6 -15 7 -8 9 -15 5 -15 -4 0 -3 -6 3 -12 6 -7 11 -16 11 -20 1 -5 1 -9
2 -10 0 -2 3 -12 5 -23 7 -30 15 -53 35 -103 5 -13 7 -28 4 -33 -4 -5 -1 -9 6
-9 7 0 10 -3 7 -6 -4 -3 0 -17 7 -31 7 -14 11 -32 8 -39 -3 -8 0 -14 6 -14 6
0 11 -6 11 -14 0 -8 18 -70 41 -138 22 -68 42 -127 43 -133 4 -18 17 -60 25
-80 5 -11 19 -54 32 -95 12 -41 27 -81 32 -87 5 -7 7 -13 4 -13 -3 0 8 -39 24
-87 32 -93 40 -120 41 -140 1 -7 5 -13 10 -13 4 0 7 -3 6 -7 -1 -7 8 -42 27
-103 1 -3 5 -13 9 -22 4 -9 9 -23 10 -32 1 -8 5 -19 9 -22 4 -4 7 -18 7 -30 0
-13 4 -25 9 -28 5 -3 12 -23 16 -43 4 -21 11 -43 16 -49 5 -7 9 -16 8 -20 -1
-5 1 -16 4 -24 16 -40 60 -177 62 -196 2 -11 8 -29 13 -40 6 -10 18 -44 27
-74 9 -30 19 -62 22 -70 4 -8 7 -18 8 -22 2 -5 3 -9 4 -10 2 -2 4 -14 7 -27 2
-14 10 -31 17 -40 10 -12 9 -13 -3 -6 -11 6 -11 4 2 -11 9 -10 17 -23 17 -29
1 -8 9 -38 36 -125 1 -3 5 -18 10 -35 4 -16 10 -34 14 -40 3 -5 6 -14 7 -20 3
-18 66 -210 75 -227 5 -10 9 -27 9 -37 0 -11 5 -23 10 -26 6 -4 8 -10 5 -15
-3 -5 -1 -11 5 -15 6 -4 8 -11 4 -16 -3 -5 -1 -15 4 -22 8 -9 32 -80 36 -107
1 -3 5 -11 9 -18 5 -6 5 -17 2 -22 -3 -6 -1 -10 5 -10 6 0 8 -5 5 -10 -3 -6
-1 -10 4 -10 6 0 11 -11 11 -25 0 -14 4 -33 9 -43 8 -15 34 -95 37 -114 1 -5
3 -11 4 -15 1 -5 2 -11 1 -15 0 -5 4 -8 11 -8 6 0 8 -3 5 -7 -4 -3 -2 -12 4
-20 6 -7 9 -13 6 -13 -3 0 5 -29 17 -64 13 -36 21 -67 18 -70 -3 -3 -1 -6 4
-6 5 0 10 -9 11 -21 2 -18 17 -67 43 -134 8 -22 53 -167 55 -175 0 -3 3 -9 6
-15 3 -5 12 -32 19 -60 7 -27 17 -55 21 -60 4 -6 10 -22 12 -35 2 -14 7 -33
11 -42 4 -9 9 -22 10 -30 2 -7 6 -21 9 -30 10 -26 17 -48 16 -51 -1 -1 6 -19
14 -39 8 -20 13 -39 9 -42 -3 -3 0 -6 7 -6 7 0 10 -4 6 -10 -3 -5 -1 -17 4
-27 8 -16 84 -246 87 -265 1 -5 3 -11 4 -15 2 -5 4 -12 5 -18 1 -5 7 -22 13
-38 7 -15 14 -39 16 -54 3 -14 9 -29 13 -32 4 -3 10 -17 11 -31 2 -14 7 -29
12 -34 5 -5 6 -15 3 -22 -3 -8 1 -14 8 -14 7 0 9 -3 6 -7 -4 -3 -2 -12 4 -20
6 -7 9 -13 5 -13 -3 0 4 -24 15 -52 11 -29 20 -53 19 -53 -2 0 6 -27 24 -80 9
-27 18 -54 19 -60 2 -5 6 -16 10 -22 5 -7 6 -13 3 -13 -3 0 3 -22 14 -50 11
-27 17 -50 14 -50 -4 0 -1 -7 6 -15 7 -8 10 -15 6 -15 -4 0 0 -10 9 -23 8 -13
12 -27 9 -30 -4 -4 -1 -13 5 -21 7 -8 10 -20 6 -26 -3 -5 -1 -10 5 -10 6 0 10
-6 9 -12 -1 -7 3 -26 10 -43 7 -16 13 -38 14 -48 1 -9 4 -17 7 -17 4 0 7 -6 8
-12 1 -28 12 -61 23 -74 6 -8 9 -14 5 -14 -3 0 0 -15 8 -34 8 -19 12 -37 8
-40 -3 -3 0 -6 7 -6 7 0 9 -5 6 -10 -4 -6 -1 -17 5 -25 7 -8 9 -15 5 -15 -4 0
-2 -7 5 -15 7 -8 10 -15 7 -15 -4 0 2 -20 13 -45 11 -25 20 -49 20 -53 0 -4
10 -38 22 -77 12 -38 22 -72 23 -75 1 -3 4 -12 8 -20 7 -19 31 -93 32 -100 0
-3 4 -11 8 -17 5 -7 6 -17 2 -22 -3 -5 0 -15 7 -23 7 -7 14 -22 16 -33 3 -19
10 -44 28 -90 8 -21 11 -35 18 -62 3 -10 5 -20 6 -23 1 -3 2 -8 1 -13 0 -4 4
-7 9 -7 6 0 10 -6 9 -12 -1 -7 0 -20 3 -28 3 -8 27 -82 53 -165 26 -82 50
-154 54 -160 3 -5 6 -14 6 -20 1 -5 4 -17 7 -25 3 -8 11 -35 19 -60 7 -25 16
-50 20 -55 4 -6 10 -22 12 -35 2 -14 7 -33 11 -42 4 -9 9 -22 10 -30 2 -7 6
-20 9 -28 3 -8 20 -60 37 -115 17 -55 35 -109 40 -120 4 -11 14 -40 21 -65 7
-25 15 -49 18 -55 3 -5 7 -19 8 -30 2 -11 7 -29 12 -40 11 -23 59 -172 66
-201 2 -10 13 -43 24 -71 10 -29 17 -53 15 -53 -3 0 1 -10 8 -22 7 -13 13 -25
13 -28 7 -40 31 -110 39 -110 5 0 6 -3 3 -7 -4 -3 -1 -13 6 -21 10 -13 9 -14
-3 -7 -12 7 -13 6 -4 -6 6 -8 17 -34 24 -59 8 -25 14 -47 15 -50 1 -3 4 -12 8
-20 7 -18 40 -122 43 -132 1 -5 2 -9 3 -10 2 -2 4 -14 7 -27 2 -14 9 -31 16
-38 6 -7 8 -16 5 -20 -4 -3 -2 -11 3 -18 5 -6 12 -22 14 -36 3 -13 5 -25 7
-26 1 -2 2 -6 3 -10 1 -5 5 -13 9 -20 5 -8 -4 -18 -25 -29 -72 -37 -196 -150
-263 -238 -38 -51 -120 -206 -109 -206 4 0 2 -6 -4 -12 -10 -13 -27 -68 -36
-118 -2 -14 -5 -25 -6 -25 -1 0 -4 -16 -6 -35 -9 -66 -5 -275 6 -275 1 0 4
-11 6 -25 9 -61 9 -61 36 -132 6 -15 10 -30 9 -32 0 -3 10 -25 23 -48 13 -24
33 -61 45 -83 11 -22 21 -36 21 -31 0 5 12 -9 26 -30 73 -109 231 -230 378
-288 181 -73 409 -80 596 -19 90 29 213 95 280 150 46 37 150 148 156 165 3
10 10 18 15 18 5 0 9 7 9 15 0 8 4 15 8 15 10 0 88 162 98 203 l6 28 4509 -3
c2996 -2 4509 -6 4510 -13 1 -5 1 -13 0 -17 0 -5 4 -8 10 -8 5 0 8 -4 5 -9 -6
-10 81 -184 95 -189 5 -2 9 -9 9 -16 0 -7 32 -47 71 -89 178 -193 421 -299
667 -292 162 6 274 35 412 108 102 54 219 156 284 247 14 19 29 40 33 45 5 6
19 33 33 60 14 28 27 52 30 55 3 3 7 12 9 20 3 8 15 47 28 85 13 39 25 84 26
100 2 17 5 35 8 40 7 13 3 242 -5 273 -3 12 -8 30 -10 40 -12 53 -29 107 -46
147 -11 25 -19 48 -19 52 0 3 -3 9 -8 12 -5 3 -17 23 -26 44 -10 20 -22 37
-27 37 -6 0 -10 5 -10 11 0 22 -117 151 -174 193 -17 12 -24 25 -21 40 2 11 4
21 5 21 1 0 3 7 5 15 6 32 38 126 46 136 5 6 6 14 2 17 -3 4 -1 12 4 19 9 11
15 28 29 83 1 6 21 66 44 135 23 69 44 132 45 140 2 8 4 16 5 18 2 1 4 7 5 12
1 6 4 12 5 15 1 3 3 8 4 13 1 4 4 12 7 17 5 9 11 28 25 80 1 6 9 29 18 53 8
23 13 42 11 42 -2 0 2 12 10 27 8 15 12 30 9 35 -3 4 -1 8 4 8 5 0 9 6 9 13 0
18 74 240 84 253 5 6 6 13 3 16 -3 4 2 20 11 37 8 17 13 31 10 31 -3 0 2 16
10 36 8 20 17 46 20 58 2 11 16 55 30 96 15 41 27 80 28 85 2 6 5 15 9 20 3 6
9 27 13 48 4 20 10 37 14 37 4 0 8 6 9 13 1 25 13 71 22 87 5 10 6 20 3 24 -3
3 -2 6 4 6 5 0 10 7 11 15 1 8 3 22 4 30 1 8 6 15 11 15 6 0 8 3 4 6 -3 3 2
29 12 58 37 104 84 251 84 264 0 6 3 12 7 12 4 0 7 7 8 15 1 8 3 22 4 30 1 8
6 15 11 15 6 0 8 3 4 6 -3 4 0 22 8 41 8 20 15 44 15 54 0 11 5 19 11 19 5 0
7 5 4 10 -4 6 -2 16 3 23 5 7 13 28 17 47 4 19 10 40 14 45 3 6 6 13 7 18 1 4
3 9 4 12 3 5 3 6 15 50 4 17 12 36 18 43 5 6 7 12 4 12 -3 0 1 16 9 35 8 19
12 35 9 35 -3 0 0 10 7 22 7 13 13 25 13 28 7 35 19 77 25 85 4 6 11 26 15 45
4 19 12 41 17 48 6 6 8 12 5 12 -3 0 0 15 8 34 8 18 11 36 8 40 -4 3 -1 6 6 6
8 0 11 7 7 15 -3 8 0 15 6 15 6 0 9 2 6 6 -5 4 28 115 49 164 3 8 7 20 8 26 2
6 22 69 45 140 23 71 43 134 44 139 2 6 6 17 9 25 8 22 71 213 73 225 1 6 12
37 24 70 12 33 21 68 21 77 0 10 5 18 11 18 5 0 8 7 5 15 -4 8 -2 17 4 20 5 4
7 11 4 16 -4 5 -1 9 6 9 7 0 10 3 7 6 -4 3 0 20 7 37 7 18 13 34 12 37 -1 8
33 113 42 130 10 19 26 82 23 93 -1 4 3 7 8 7 6 0 10 6 9 13 -1 6 0 19 4 27 8
20 51 154 68 210 8 25 13 48 11 53 -1 4 3 7 9 7 6 0 9 6 6 14 -3 7 1 23 9 34
8 12 14 25 13 29 -1 4 4 22 11 38 7 17 13 33 12 37 -1 3 9 35 21 70 13 35 24
66 25 71 9 39 16 64 22 72 6 8 16 42 22 72 0 5 7 22 14 39 7 17 10 34 7 38 -4
3 -1 6 5 6 7 0 11 3 10 8 -3 13 24 102 33 108 5 3 9 14 9 24 0 10 5 31 12 47
6 15 10 32 9 37 -1 4 4 14 10 22 6 8 9 14 5 14 -3 0 4 24 15 53 12 28 23 62
25 73 2 12 11 38 19 58 8 20 13 36 11 36 -3 0 1 12 9 27 8 15 12 30 9 35 -3 4
0 8 7 8 7 0 10 3 6 6 -3 4 0 22 8 41 8 20 15 44 15 54 0 11 5 19 11 19 5 0 7
5 4 10 -4 6 -2 16 4 23 5 7 12 24 14 37 3 14 10 36 15 50 5 14 10 27 10 30 0
3 6 19 12 35 7 17 14 41 16 54 3 13 9 32 15 43 5 10 7 18 4 18 -3 0 0 10 7 23
7 12 13 24 13 27 6 30 19 77 24 85 3 6 6 12 6 15 1 3 16 50 34 105 18 55 35
107 36 115 2 8 4 17 5 20 1 3 2 8 1 13 0 4 4 7 11 7 6 0 9 3 5 6 -3 4 0 22 8
40 8 19 11 34 8 34 -3 0 0 6 6 14 6 7 12 25 13 40 1 14 6 26 10 26 4 0 8 6 8
13 0 6 27 95 61 197 33 102 61 190 63 195 1 6 5 16 9 22 5 7 6 13 2 13 -3 0 1
14 10 30 9 17 13 30 9 30 -4 0 -2 6 4 13 6 6 10 14 10 17 0 3 8 32 18 65 10
33 19 63 20 68 1 4 3 9 4 12 1 3 4 10 5 15 1 6 4 12 5 15 1 3 4 10 5 15 1 6 4
12 5 15 1 3 3 8 5 13 1 4 7 19 13 35 7 15 14 38 16 51 2 14 9 33 14 43 6 10
10 21 11 26 2 21 15 63 21 72 7 9 22 66 21 80 0 2 6 17 14 32 8 14 12 30 9 35
-3 4 0 8 5 8 6 0 10 3 9 8 -1 4 9 41 22 82 13 41 24 77 25 80 2 8 36 114 42
130 3 8 7 22 9 31 2 9 8 27 13 40 5 13 9 26 9 29 0 3 7 22 15 43 9 20 13 37
10 37 -3 0 -1 6 5 13 9 12 25 70 22 83 -1 4 2 10 7 13 8 5 42 106 43 124 0 4
6 20 14 36 9 16 12 31 9 35 -4 3 6 7 20 7 15 1 30 2 35 3 4 1 34 6 67 10 32 4
89 17 125 28 70 22 203 85 208 99 2 5 10 9 18 9 8 0 14 5 14 10 0 6 6 10 13
10 21 0 172 153 214 216 23 34 103 194 98 194 -3 0 1 14 10 30 9 17 13 30 9
30 -4 0 -1 7 6 15 7 8 10 15 7 15 -2 0 1 26 8 59 12 60 18 271 6 271 -3 0 -7
15 -7 33 -2 32 -4 44 -23 104 -5 17 -7 34 -3 37 3 3 0 6 -6 6 -7 0 -12 7 -12
15 0 9 -11 38 -25 65 -14 28 -24 52 -23 55 2 2 -6 11 -17 19 -11 9 -16 16 -12
16 13 0 -78 114 -136 170 -296 289 -780 326 -1119 84 l-47 -33 -88 65 c-48 35
-97 70 -108 78 -143 103 -221 161 -223 168 -2 4 -8 8 -14 8 -5 0 -35 20 -66
43 -32 24 -115 86 -187 138 -71 51 -131 97 -133 101 -2 5 -8 8 -13 8 -6 0 -15
5 -22 10 -38 33 -228 170 -236 170 -5 0 -11 3 -13 8 -5 12 -85 72 -96 72 -6 0
-12 4 -14 9 -2 4 -41 36 -88 69 -47 34 -141 102 -210 152 -69 50 -168 122
-220 160 -52 38 -178 129 -280 204 -102 74 -212 154 -245 177 -33 24 -67 49
-75 56 -8 7 -67 50 -130 95 -63 45 -116 86 -118 90 -2 4 -10 8 -17 8 -7 0 -15
4 -17 8 -1 4 -47 39 -101 77 -54 39 -129 94 -166 123 -38 28 -72 52 -76 52 -3
0 -18 11 -33 25 -15 14 -43 36 -62 47 -19 12 -47 31 -61 42 -14 12 -37 28 -49
36 -13 8 -31 22 -39 30 -9 8 -43 33 -76 55 -33 22 -62 42 -65 45 -3 3 -21 17
-40 30 -19 14 -42 30 -50 37 -8 6 -71 52 -140 102 -69 50 -134 97 -145 105
-11 9 -77 56 -145 106 -69 50 -136 99 -150 109 -14 11 -146 107 -295 215 -148
108 -279 202 -290 211 -11 8 -77 55 -145 105 -69 50 -136 100 -150 110 -36 27
-251 182 -277 200 -11 8 -175 128 -363 265 -188 138 -349 255 -358 260 -9 6
-19 13 -22 16 -3 3 -88 65 -190 139 -102 73 -186 137 -188 142 -2 4 -8 8 -13
8 -5 0 -17 7 -26 15 -10 8 -202 148 -428 312 -225 163 -418 305 -428 314 -14
13 -17 23 -11 41 4 12 9 25 9 28 1 3 5 17 9 31 4 14 9 34 11 45 2 10 4 19 5
19 5 0 12 102 13 170 0 94 -8 172 -22 209 -6 14 -8 26 -6 26 9 0 -58 155 -100
230 -64 114 -241 270 -378 334 -157 73 -352 99 -522 69z m1205 -1619 c173
-125 320 -232 325 -236 6 -5 82 -61 170 -124 88 -63 171 -124 185 -134 14 -10
185 -135 380 -276 195 -142 357 -260 360 -263 3 -3 13 -10 22 -16 20 -12 411
-296 418 -304 3 -3 13 -10 22 -16 9 -5 62 -44 118 -85 56 -41 109 -79 118 -85
9 -5 21 -14 27 -20 15 -13 14 -12 315 -230 140 -102 262 -191 271 -197 8 -7
23 -17 32 -23 17 -11 295 -214 312 -228 6 -4 57 -42 115 -83 117 -84 155 -113
175 -131 8 -7 16 -13 19 -13 5 0 138 -95 171 -122 6 -5 51 -38 100 -73 50 -35
95 -68 100 -72 6 -4 51 -37 100 -72 50 -36 92 -67 95 -70 3 -4 28 -22 55 -40
28 -19 52 -37 55 -40 3 -4 28 -22 55 -40 28 -19 52 -37 55 -40 3 -4 28 -22 55
-41 28 -19 55 -38 60 -43 19 -16 360 -263 438 -317 42 -29 77 -57 77 -62 0 -4
7 -8 15 -8 8 0 15 -4 15 -10 0 -5 7 -10 15 -10 8 0 15 -4 15 -8 0 -4 12 -15
28 -24 15 -9 36 -24 47 -32 11 -9 45 -34 75 -56 30 -22 60 -43 65 -48 6 -5 24
-17 40 -28 16 -10 36 -25 45 -33 8 -7 65 -49 125 -92 166 -120 309 -223 320
-232 9 -7 77 -57 140 -103 11 -8 61 -43 110 -79 50 -35 95 -68 100 -72 25 -20
91 -69 111 -83 34 -23 188 -133 199 -143 13 -11 97 -72 174 -127 70 -51 198
-144 222 -163 8 -6 22 -16 31 -22 77 -51 118 -82 123 -93 3 -7 -6 -28 -19 -45
-43 -57 -119 -230 -118 -267 0 -3 -3 -9 -8 -15 -4 -5 -6 -18 -5 -27 2 -10 0
-18 -4 -18 -4 0 -6 -16 -6 -35 1 -19 -1 -35 -4 -35 -8 0 -6 -205 2 -217 4 -7
-102 -36 -173 -48 -3 -1 -18 -4 -35 -8 -16 -4 -39 -9 -50 -11 -11 -2 -72 -16
-135 -30 -63 -15 -124 -28 -135 -31 -11 -2 -31 -6 -45 -9 -38 -8 -157 -35
-230 -52 -36 -9 -74 -18 -85 -20 -11 -2 -173 -38 -360 -80 -187 -41 -349 -77
-360 -80 -12 -2 -142 -31 -289 -64 -148 -33 -271 -58 -274 -55 -3 3 -7 13 -8
23 -2 9 -8 18 -13 20 -6 2 -11 12 -11 23 0 10 -5 19 -11 19 -5 0 -8 4 -5 9 3
5 -1 14 -9 21 -8 7 -12 16 -9 21 3 5 0 9 -5 9 -6 0 -11 5 -11 11 0 19 -88 126
-156 188 -117 107 -301 198 -444 218 -92 13 -279 8 -350 -11 -125 -32 -250
-92 -340 -164 -60 -48 -170 -164 -170 -179 0 -7 -4 -13 -8 -13 -17 0 -115
-198 -127 -257 -7 -32 -13 -56 -15 -63 -4 -9 -7 -25 -8 -42 -2 -17 -68 -18
-1264 -14 -695 3 -1289 5 -1320 5 -55 1 -57 2 -63 34 -4 17 -12 38 -17 45 -6
6 -7 12 -4 12 4 0 2 9 -4 21 -7 11 -14 31 -16 45 -2 13 -9 36 -16 51 -13 32
-19 52 -20 71 -1 6 -6 12 -11 12 -6 0 -8 3 -4 6 3 4 0 22 -8 40 -8 19 -11 34
-8 34 3 0 1 6 -5 13 -6 7 -13 24 -16 37 -4 25 -10 44 -23 78 -3 9 -7 20 -8 25
-2 4 -3 8 -5 10 -1 1 -3 9 -5 17 -2 8 -33 105 -69 214 -36 110 -66 206 -66
213 0 7 -4 13 -10 13 -5 0 -9 3 -8 8 2 9 -13 74 -21 87 -3 6 -6 12 -7 15 -1 5
-2 8 -28 85 -10 28 -19 57 -21 65 -2 8 -13 47 -26 85 -13 39 -22 73 -21 78 1
4 -3 7 -10 7 -6 0 -9 3 -5 6 3 4 -1 23 -9 43 -9 20 -17 43 -18 51 -1 8 -5 22
-8 30 -8 18 -28 83 -28 90 0 3 -14 43 -31 90 -16 47 -31 92 -34 100 -2 8 -8
26 -13 40 -5 14 -10 27 -10 30 -1 7 -8 31 -18 55 -8 24 -12 35 -17 55 -2 8 -7
22 -10 30 -20 50 -71 217 -69 228 2 6 -1 12 -6 12 -7 0 -35 88 -37 115 0 6 19
20 42 32 109 55 243 179 316 292 23 36 41 68 40 73 -2 4 2 8 7 8 5 0 9 3 8 8
-1 4 6 22 15 40 10 17 14 32 10 32 -5 0 -3 4 2 8 15 10 39 90 48 158 3 18 7
37 11 43 4 6 2 11 -5 11 -8 0 -8 4 -1 13 6 7 9 25 8 40 -2 15 2 27 8 27 7 0 7
3 1 8 -5 4 -10 25 -9 47 0 22 -4 50 -8 63 -6 16 -5 21 4 16 7 -5 8 -3 4 5 -5
7 -10 27 -13 44 -3 18 -9 39 -14 48 -4 9 -6 19 -3 22 3 3 2 12 -2 19 -5 7 -9
15 -9 18 -1 23 -63 158 -76 165 -5 4 -7 11 -4 16 4 5 1 9 -4 9 -6 0 -11 5 -11
11 0 16 -35 59 -115 143 -142 149 -311 234 -520 261 -21 3 -41 8 -43 10 -5 5
-5 2065 -1 2069 2 2 45 12 95 24 50 11 122 35 160 53 72 34 147 79 152 92 2 4
8 7 14 7 14 0 142 125 170 166 13 19 27 29 33 25 5 -5 152 -111 325 -237z
m-1746 201 c35 -46 127 -132 185 -173 101 -73 285 -145 387 -151 15 -1 24 -35
14 -51 -4 -7 -4 -27 0 -46 5 -21 4 -34 -2 -34 -7 0 -7 -4 0 -13 6 -7 7 -19 3
-26 -5 -7 -5 -28 -1 -47 5 -21 4 -34 -2 -34 -7 0 -7 -4 0 -13 7 -8 7 -18 2
-27 -5 -9 -5 -19 2 -27 7 -9 7 -13 -2 -13 -9 0 -9 -4 -2 -13 6 -7 7 -19 3 -26
-5 -7 -5 -28 -1 -47 5 -21 4 -34 -2 -34 -7 0 -7 -4 0 -13 6 -7 7 -19 3 -26 -5
-7 -5 -28 -1 -47 5 -21 4 -34 -2 -34 -7 0 -7 -4 0 -13 6 -7 8 -18 4 -24 -4 -6
-5 -54 -2 -107 3 -53 1 -96 -4 -96 -5 0 -4 -6 2 -13 6 -7 7 -19 3 -26 -5 -7
-5 -28 -1 -47 5 -21 4 -34 -2 -34 -7 0 -7 -4 0 -13 6 -7 7 -19 3 -26 -5 -7 -5
-28 -1 -47 5 -21 4 -34 -2 -34 -7 0 -7 -4 0 -13 6 -7 8 -18 4 -24 -4 -6 -5
-54 -2 -107 3 -53 1 -96 -4 -96 -5 0 -4 -6 2 -13 6 -7 7 -19 3 -26 -5 -7 -5
-28 -1 -47 5 -21 4 -34 -2 -34 -7 0 -7 -4 0 -13 6 -7 7 -19 3 -26 -5 -7 -5
-28 -1 -47 5 -21 4 -34 -2 -34 -7 0 -7 -4 0 -13 7 -8 7 -18 2 -27 -5 -9 -5
-19 2 -27 7 -9 7 -13 -2 -13 -9 0 -9 -4 -2 -13 6 -7 7 -19 3 -26 -5 -7 -5 -28
-1 -47 5 -21 4 -34 -2 -34 -7 0 -7 -4 0 -13 6 -7 7 -19 3 -26 -5 -7 -5 -28 -1
-47 5 -21 4 -34 -2 -34 -7 0 -7 -4 0 -13 6 -7 8 -18 4 -24 -4 -6 -5 -52 -2
-102 5 -93 3 -98 -36 -106 -247 -53 -479 -226 -591 -440 -34 -64 -72 -157 -79
-190 -2 -11 -7 -31 -10 -45 -3 -14 -7 -36 -9 -50 -2 -14 -4 -25 -5 -25 -1 0
-3 -38 -4 -84 -2 -77 3 -133 19 -221 9 -49 48 -164 58 -168 4 -2 5 -8 1 -13
-3 -5 -2 -9 3 -9 4 0 17 -20 28 -45 11 -25 23 -45 27 -45 5 0 8 -5 8 -11 0
-30 154 -190 236 -244 51 -34 57 -46 40 -73 -4 -7 -5 -16 -2 -19 3 -3 2 -11
-3 -17 -10 -13 -53 -145 -54 -163 0 -7 -5 -13 -10 -13 -6 0 -8 -3 -4 -6 3 -4
0 -21 -8 -39 -7 -19 -11 -36 -7 -39 3 -3 0 -6 -6 -6 -7 0 -11 -3 -11 -7 3 -16
-14 -74 -22 -79 -5 -3 -7 -10 -3 -15 3 -5 0 -16 -6 -24 -7 -8 -10 -15 -6 -15
4 0 0 -13 -9 -30 -8 -16 -16 -33 -16 -37 -2 -9 -4 -16 -20 -68 -7 -22 -14 -44
-15 -50 -2 -12 -33 -104 -41 -125 -4 -8 -7 -18 -8 -22 -2 -5 -3 -9 -5 -10 -1
-3 -6 -21 -13 -50 -1 -7 -5 -17 -8 -23 -4 -5 -9 -22 -13 -37 -3 -15 -11 -40
-18 -55 -6 -15 -13 -37 -15 -47 -2 -11 -8 -25 -13 -31 -5 -7 -7 -15 -3 -18 3
-4 1 -13 -5 -20 -7 -8 -9 -17 -5 -20 3 -4 2 -7 -4 -7 -5 0 -10 -6 -11 -12 -2
-21 -7 -39 -32 -113 -13 -38 -25 -72 -25 -75 -9 -34 -19 -67 -24 -75 -3 -5 -7
-17 -8 -26 -1 -9 -8 -29 -14 -45 -7 -16 -13 -31 -14 -34 -10 -32 -29 -97 -31
-102 -1 -5 -3 -10 -4 -13 -1 -3 -3 -8 -5 -12 -2 -10 -14 -41 -26 -71 -5 -13
-7 -28 -4 -33 4 -5 2 -9 -2 -9 -8 0 -49 -129 -45 -142 1 -5 -2 -8 -6 -8 -5 0
-14 -24 -21 -52 -8 -29 -17 -57 -21 -63 -7 -10 -20 -51 -27 -89 -2 -11 -8 -25
-14 -32 -6 -7 -8 -18 -4 -24 3 -5 2 -10 -4 -10 -6 0 -8 -7 -5 -15 4 -8 1 -15
-6 -15 -7 0 -10 -7 -6 -15 3 -8 0 -15 -6 -15 -6 0 -9 -3 -5 -6 3 -4 0 -22 -8
-40 -8 -19 -12 -34 -9 -34 3 0 0 -9 -6 -21 -6 -11 -13 -28 -15 -37 -2 -9 -8
-29 -13 -43 l-10 -25 -1229 3 c-1612 5 -1488 3 -1489 31 -1 12 -2 23 -3 25 -1
1 -4 17 -7 36 -2 19 -9 39 -14 46 -5 7 -7 15 -4 18 3 3 2 12 -2 19 -5 7 -9 15
-10 18 -6 28 -66 153 -79 162 -5 4 -6 8 -2 8 5 0 2 6 -5 14 -7 7 -20 24 -28
36 -65 99 -194 212 -310 270 -344 174 -756 113 -1021 -150 -59 -59 -129 -142
-129 -154 0 -5 -9 -21 -21 -37 -11 -16 -17 -29 -12 -29 4 0 3 -4 -3 -8 -10 -7
-46 -80 -58 -120 -8 -23 -16 -23 -91 -1 -16 4 -41 10 -55 13 -14 2 -270 59
-570 126 -300 67 -584 131 -632 141 -139 31 -268 59 -333 74 -104 24 -289 65
-315 71 -49 9 -50 11 -43 56 8 50 7 166 -2 223 -3 22 -6 50 -6 62 1 12 -4 25
-9 28 -5 3 -7 12 -4 19 3 8 1 17 -5 20 -6 4 -8 13 -4 21 3 8 0 15 -7 15 -6 0
-9 4 -6 8 7 11 -57 142 -104 213 -23 34 -37 65 -33 69 4 4 73 54 153 110 80
57 157 113 171 124 15 12 38 29 52 39 80 58 424 307 433 314 5 4 17 13 26 18
20 13 238 172 259 189 8 7 46 34 84 61 38 26 73 52 79 57 9 7 190 139 391 284
151 109 242 175 250 181 6 5 35 26 65 48 30 22 60 43 65 47 6 5 35 26 65 47
30 22 60 45 67 51 7 5 15 10 17 10 3 0 14 7 23 15 10 8 59 44 108 79 50 36 98
71 107 78 16 13 78 57 313 228 61 44 119 87 130 95 11 9 32 24 48 33 15 9 27
20 27 24 0 4 7 8 15 8 8 0 15 4 15 9 0 5 8 12 18 15 9 4 31 19 49 34 17 15 71
54 119 87 48 33 97 69 110 80 14 11 45 35 72 53 53 37 411 297 427 309 6 5 32
24 60 43 27 19 55 40 61 45 7 6 22 18 35 27 13 9 54 38 91 65 36 26 76 55 88
63 12 8 79 57 148 109 70 51 137 98 150 104 12 5 22 13 22 17 0 3 33 29 73 55
39 27 74 52 77 55 3 3 46 35 95 70 50 35 96 70 103 77 8 7 22 18 33 23 19 10
136 96 172 125 9 8 20 15 23 15 4 0 21 12 39 28 18 15 68 52 111 82 43 30 106
76 140 103 35 26 68 47 73 47 5 0 11 4 13 8 3 7 60 50 301 225 144 103 171
123 191 137 18 13 323 234 566 411 36 26 106 77 155 113 50 36 95 69 100 73 6
4 33 24 60 43 28 19 55 38 60 42 6 5 44 33 85 64 41 30 82 60 90 67 9 6 43 30
75 52 33 22 62 43 63 48 7 14 20 6 46 -28z m566 -4150 c59 -13 288 -16 330 -4
8 2 14 0 15 -6 0 -5 4 -15 8 -22 4 -6 8 -23 9 -37 1 -14 5 -26 9 -26 4 0 10
-17 15 -37 8 -42 8 -40 18 -68 17 -45 19 -50 21 -55 4 -15 87 -267 92 -280 3
-8 5 -20 4 -27 -1 -6 3 -14 9 -18 5 -3 10 -12 10 -20 0 -8 5 -26 12 -42 6 -15
12 -30 13 -33 20 -79 30 -110 35 -110 3 0 6 -8 7 -17 1 -10 17 -64 37 -120 19
-57 32 -103 29 -103 -3 0 -1 -6 4 -12 9 -11 27 -68 24 -76 -1 -1 6 -16 14 -32
9 -17 13 -30 9 -30 -4 0 -1 -6 5 -14 6 -8 11 -18 10 -22 -1 -5 3 -22 10 -39 7
-16 15 -42 18 -57 3 -16 10 -28 16 -28 6 0 8 -3 4 -6 -3 -3 3 -30 13 -59 10
-29 16 -56 13 -59 -4 -3 -1 -6 6 -6 6 0 11 -6 10 -12 -1 -7 1 -20 4 -28 4 -8
18 -51 32 -95 14 -44 28 -87 31 -95 3 -8 5 -17 6 -20 0 -3 6 -19 13 -37 7 -17
11 -34 7 -37 -3 -3 0 -6 7 -6 7 0 9 -4 6 -10 -3 -5 0 -20 7 -32 6 -13 13 -27
14 -33 0 -5 2 -13 4 -17 1 -5 3 -11 4 -15 9 -37 101 -311 107 -319 5 -6 6 -14
2 -17 -3 -4 -1 -12 4 -19 6 -7 15 -28 21 -46 l11 -33 -979 2 c-825 1 -980 3
-980 15 0 12 23 88 37 124 4 8 7 18 8 23 2 4 4 9 5 12 1 3 4 10 5 15 1 6 4 13
5 18 1 4 3 12 4 17 1 6 7 22 14 38 6 15 14 38 16 51 2 14 9 33 15 44 6 11 7
22 4 26 -3 3 -2 6 4 6 5 0 10 6 11 13 1 10 7 42 11 55 1 1 1 4 1 7 0 3 9 24
19 47 10 24 16 49 14 56 -3 6 0 12 6 12 6 0 11 7 11 15 0 8 13 53 29 99 16 46
27 87 23 90 -3 3 -1 6 5 6 5 0 10 6 11 13 1 20 9 50 23 82 13 33 16 40 23 72
2 12 10 31 16 42 6 12 8 21 4 21 -3 0 -1 6 5 13 6 8 8 17 4 20 -3 4 -1 7 6 7
7 0 10 4 6 9 -3 5 -1 12 5 16 6 4 8 11 4 16 -3 5 0 16 6 24 7 8 10 15 7 15 -4
0 2 20 13 45 11 25 17 45 15 45 -2 0 2 15 10 34 8 18 11 36 8 40 -4 3 -1 6 5
6 7 0 11 3 11 8 -1 4 0 9 1 12 1 3 3 12 5 20 2 8 31 98 65 200 34 102 63 192
65 201 2 8 10 32 19 52 8 20 13 37 10 37 -3 0 -2 6 3 13 4 6 8 17 9 22 1 6 15
49 32 97 17 47 28 89 24 92 -3 3 1 6 8 6 7 0 11 3 7 6 -3 3 3 28 13 54 10 26
16 51 13 54 -4 3 -2 6 4 6 5 0 10 6 10 13 0 27 47 147 57 147 6 0 40 -7 76
-15z m7900 -1907 c8 -13 14 -25 15 -28 1 -22 90 -153 133 -199 29 -31 56 -61
60 -66 32 -47 221 -156 332 -191 62 -20 65 -22 62 -50 -2 -16 -8 -34 -13 -40
-5 -6 -6 -14 -2 -17 3 -4 1 -12 -5 -19 -6 -7 -11 -16 -11 -20 -6 -40 -15 -68
-21 -68 -5 0 -7 -8 -5 -17 1 -10 -2 -27 -8 -38 -6 -11 -12 -23 -13 -27 -1 -5
-2 -9 -4 -10 -2 -4 -11 -41 -12 -55 -1 -7 -6 -13 -11 -13 -6 0 -8 -3 -5 -6 4
-3 -5 -36 -18 -72 -13 -37 -24 -75 -24 -84 0 -10 -5 -18 -11 -18 -5 0 -8 -4
-4 -10 3 -5 1 -17 -4 -27 -6 -10 -27 -72 -47 -138 -20 -66 -41 -126 -47 -132
-5 -7 -6 -13 -2 -13 4 0 2 -6 -4 -13 -6 -8 -8 -16 -5 -19 3 -4 -2 -20 -10 -37
-9 -16 -16 -39 -16 -51 0 -11 -5 -20 -12 -20 -6 0 -9 -3 -5 -6 3 -3 -1 -23 -8
-45 -8 -21 -12 -39 -9 -39 2 0 -3 -11 -12 -25 -9 -14 -14 -25 -11 -25 3 0 0
-15 -8 -34 -8 -18 -11 -36 -8 -40 4 -3 0 -6 -7 -6 -7 0 -11 -3 -7 -6 3 -3 -1
-25 -10 -47 -8 -23 -16 -46 -17 -52 -1 -5 -5 -15 -9 -22 -4 -6 -8 -23 -9 -37
-1 -14 -5 -26 -8 -26 -3 0 -14 -31 -25 -70 -11 -38 -22 -70 -25 -70 -4 0 -7
-6 -8 -12 -3 -43 -7 -58 -15 -58 -4 0 -6 -3 -4 -7 3 -5 0 -19 -6 -33 -5 -14
-11 -32 -13 -41 -2 -9 -9 -29 -15 -45 -7 -16 -11 -35 -10 -41 1 -7 -2 -13 -6
-13 -5 0 -10 -12 -11 -26 -1 -15 -7 -33 -13 -40 -6 -7 -8 -18 -4 -24 3 -5 2
-10 -3 -10 -8 0 -38 -98 -34 -112 1 -5 -3 -8 -10 -8 -6 0 -9 -3 -5 -6 3 -3 -3
-28 -13 -54 -10 -26 -16 -51 -13 -54 4 -3 0 -6 -7 -6 -7 0 -11 -3 -7 -6 3 -3
-1 -25 -10 -47 -8 -23 -16 -49 -18 -57 -2 -8 -4 -16 -5 -17 -2 -2 -3 -6 -5
-10 -1 -5 -4 -15 -8 -23 -3 -8 -13 -40 -22 -70 -9 -30 -19 -62 -22 -70 -7 -18
-11 -30 -16 -50 -2 -8 -10 -28 -16 -45 -7 -16 -14 -34 -15 -40 -12 -58 -32
-115 -40 -115 -5 0 -7 -3 -4 -6 4 -3 -3 -33 -14 -67 -25 -78 -27 -86 -29 -95
0 -4 -5 -14 -10 -23 -4 -9 -10 -29 -13 -44 -3 -16 -9 -31 -13 -34 -4 -3 -8
-10 -8 -16 -1 -5 -9 -37 -18 -70 -10 -33 -18 -64 -17 -69 1 -5 -2 -12 -7 -15
-7 -5 -64 -169 -64 -188 -1 -5 -7 -22 -14 -40 -7 -17 -11 -34 -7 -37 3 -3 1
-6 -5 -6 -5 0 -10 -7 -11 -15 -1 -8 -3 -22 -4 -30 -1 -8 -4 -15 -8 -15 -4 0
-7 -6 -8 -12 -1 -13 -9 -48 -12 -58 -1 -3 -2 -8 -1 -12 0 -5 -3 -8 -7 -8 -4 0
-8 -8 -9 -18 -1 -10 -17 -64 -36 -120 -19 -55 -32 -103 -29 -106 3 -3 0 -6 -6
-6 -6 0 -9 -7 -6 -15 4 -8 1 -15 -6 -15 -7 0 -10 -7 -6 -15 3 -8 1 -15 -4 -15
-6 0 -9 -3 -8 -7 3 -8 -26 -110 -40 -143 -3 -8 -7 -19 -7 -25 -1 -5 -7 -23
-14 -40 -7 -16 -13 -38 -14 -47 -1 -10 -4 -18 -7 -18 -4 0 -7 -7 -8 -15 -1 -8
-3 -22 -4 -30 -1 -8 -4 -15 -8 -15 -4 0 -7 -6 -7 -12 0 -14 -48 -168 -63 -203
-5 -11 -23 -65 -40 -120 -17 -55 -34 -107 -37 -115 -3 -8 -7 -19 -8 -25 -2 -5
-13 -41 -26 -80 -13 -38 -24 -73 -25 -77 -1 -5 -3 -10 -4 -13 -1 -3 -4 -9 -5
-15 -1 -5 -4 -12 -5 -15 -1 -3 -4 -9 -5 -15 -1 -5 -3 -11 -5 -12 -1 -2 -3 -10
-5 -18 -2 -8 -10 -34 -18 -57 -9 -22 -13 -44 -10 -47 4 -3 1 -6 -5 -6 -7 0
-11 -3 -10 -7 3 -13 -33 -127 -44 -140 -6 -7 -8 -13 -4 -13 3 0 1 -12 -5 -27
-6 -16 -12 -35 -14 -43 -2 -8 -20 -64 -40 -125 -21 -60 -39 -117 -40 -125 -2
-8 -15 -46 -29 -85 -14 -38 -26 -72 -26 -75 0 -3 -16 -54 -36 -115 -20 -60
-38 -117 -39 -125 -2 -8 -4 -16 -5 -17 -2 -2 -3 -6 -5 -10 -1 -5 -5 -16 -8
-26 -20 -51 -23 -60 -30 -90 -8 -33 -39 -124 -48 -140 -5 -10 -7 -22 -4 -27 4
-6 1 -10 -4 -10 -6 0 -11 -7 -11 -15 0 -13 -22 -88 -37 -125 -4 -8 -7 -17 -8
-20 -7 -24 -29 -96 -30 -100 -3 -14 -38 -118 -45 -135 -8 -18 -21 -59 -26 -77
-1 -5 -2 -9 -4 -10 -1 -2 -3 -11 -6 -21 -6 -26 -10 -41 -17 -57 -12 -34 -59
-176 -62 -190 -2 -8 -21 -68 -43 -132 -22 -64 -37 -119 -34 -123 3 -3 1 -5 -5
-5 -5 0 -10 -6 -11 -12 -1 -28 -12 -61 -23 -74 -6 -8 -9 -14 -5 -14 3 0 1 -12
-5 -27 -6 -16 -13 -39 -15 -52 -3 -14 -8 -29 -12 -35 -4 -6 -7 -14 -8 -18 -1
-5 -3 -10 -4 -13 -4 -8 -7 -17 -15 -53 -4 -18 -12 -35 -16 -38 -5 -3 -7 -9 -4
-14 3 -5 -2 -21 -11 -35 -9 -14 -13 -25 -10 -25 3 0 0 -16 -8 -35 -8 -19 -13
-35 -10 -35 3 0 -1 -10 -8 -22 -7 -13 -13 -25 -13 -28 -7 -35 -19 -77 -25 -85
-6 -8 -16 -41 -20 -67 -1 -4 -10 -31 -21 -60 -11 -29 -22 -63 -25 -74 -2 -12
-11 -38 -19 -58 -8 -20 -13 -36 -10 -36 3 0 1 -9 -5 -21 -6 -11 -13 -28 -15
-37 -2 -9 -17 -57 -35 -107 -17 -49 -33 -101 -36 -114 -3 -13 -9 -32 -14 -41
-5 -10 -6 -20 -2 -24 3 -4 -7 -2 -23 4 -37 14 -38 15 -150 38 -122 26 -333 20
-390 -11 -11 -6 -21 -9 -23 -8 -1 1 -21 -4 -43 -11 -39 -11 -42 -10 -60 13
-36 45 -79 110 -79 119 0 4 -4 10 -8 12 -11 4 -72 94 -72 105 0 5 -9 15 -20
23 -11 8 -20 19 -20 25 0 6 -8 20 -17 31 -10 10 -24 31 -32 46 -8 15 -21 36
-30 46 -22 25 -41 54 -47 74 -3 9 -12 19 -20 22 -8 3 -14 12 -14 21 0 8 -4 15
-10 15 -5 0 -10 7 -10 15 0 9 -7 18 -15 21 -8 4 -12 10 -9 15 3 5 1 9 -4 9 -5
0 -15 12 -23 28 -8 15 -21 35 -30 45 -9 9 -22 30 -30 45 -8 15 -17 29 -20 32
-3 3 -43 61 -89 130 -46 69 -87 127 -92 128 -4 2 -8 9 -8 16 0 7 -9 21 -20 31
-11 10 -20 22 -20 27 0 5 -18 33 -40 63 -22 30 -40 58 -40 64 0 5 -4 11 -8 13
-10 4 -72 96 -72 107 0 5 -7 12 -16 15 -9 4 -14 9 -11 12 3 3 -3 15 -13 27
-11 12 -19 26 -19 31 0 5 -3 12 -8 15 -5 3 -34 42 -63 86 -29 44 -57 82 -62
83 -4 2 -8 10 -8 18 0 8 -4 14 -10 14 -5 0 -10 5 -10 11 0 6 -27 48 -60 95
-33 46 -60 88 -60 93 0 4 -9 16 -20 26 -11 10 -20 22 -20 27 0 8 -9 20 -37 53
-7 7 -13 16 -13 19 0 3 -35 56 -77 117 l-76 112 29 21 c46 32 156 147 185 191
49 75 89 145 83 145 -4 0 -1 6 5 13 13 16 39 88 47 131 8 45 12 61 14 61 1 0
3 16 5 35 2 19 4 35 5 35 1 0 3 42 4 93 0 50 -1 92 -4 92 -3 0 -6 10 -7 23 -1
27 -9 77 -15 97 -32 101 -54 160 -70 183 -11 15 -17 27 -14 27 5 0 -15 33 -61
100 -33 48 -158 167 -219 208 -152 102 -329 153 -514 147 -52 -2 -111 -6 -131
-10 -38 -7 -46 1 -56 49 -2 11 -8 26 -15 33 -6 7 -8 16 -5 20 4 3 3 11 -2 17
-4 6 -16 36 -25 66 -10 30 -20 62 -23 70 -3 8 -8 26 -10 40 -2 14 -8 27 -14
28 -5 2 -9 16 -9 31 0 15 -4 31 -8 37 -5 5 -14 29 -21 54 -7 25 -17 54 -21 65
-20 50 -38 114 -32 119 3 3 1 6 -4 6 -8 0 -18 26 -39 110 -1 3 -7 17 -13 33
-7 15 -14 38 -16 50 -3 12 -14 46 -25 75 -12 28 -18 52 -15 52 4 0 1 7 -6 15
-7 8 -9 15 -5 15 4 0 3 6 -2 13 -5 6 -18 39 -27 72 -10 33 -24 76 -32 95 -8
19 -16 45 -17 58 0 12 -4 22 -7 22 -4 0 -7 7 -8 15 -1 8 -3 22 -4 30 -1 8 -5
15 -10 15 -4 0 -8 11 -8 24 0 14 -4 28 -10 31 -5 3 -10 19 -10 36 0 16 -4 29
-10 29 -5 0 -10 9 -10 20 0 12 -7 34 -15 49 -8 16 -12 31 -9 34 3 3 -1 18 -10
35 -8 16 -12 32 -9 36 4 3 2 6 -4 6 -5 0 -10 6 -10 13 0 13 -40 139 -80 252
-13 39 -26 77 -28 85 -2 8 -8 26 -13 40 -5 14 -10 27 -10 30 -1 6 -10 34 -19
58 -7 18 -11 35 -16 55 -1 6 -5 17 -8 22 -3 6 -20 57 -38 115 -42 134 -42 135
-41 138 0 1 -6 15 -14 31 l-15 29 80 58 c44 33 88 65 97 72 10 7 51 37 92 67
41 29 91 66 110 80 19 15 78 58 130 96 52 37 100 72 105 77 6 5 33 24 60 43
44 30 112 80 140 102 5 4 42 31 80 58 39 28 81 59 95 69 33 24 129 95 205 151
33 24 74 53 90 65 69 48 611 444 625 457 8 7 44 33 80 58 36 24 67 46 70 49 3
3 19 16 36 28 l31 21 24 -25 c37 -41 128 -107 193 -143 58 -31 189 -81 231
-87 11 -1 38 -6 60 -9 72 -13 199 -12 275 3 76 14 216 57 236 73 6 5 33 21 60
35 91 49 220 167 278 255 16 24 37 56 48 71 10 15 18 33 18 40 0 7 7 22 15 32
8 10 12 23 9 27 -3 5 -1 9 4 9 5 0 14 19 21 42 20 65 32 123 35 166 2 17 5 34
8 37 2 3 3 43 2 90 -2 46 1 87 5 89 7 4 371 88 441 102 14 3 84 18 156 35 73
16 142 32 155 35 13 2 42 9 64 13 22 5 193 43 380 86 187 42 350 79 363 81 80
16 568 127 571 130 12 11 38 2 51 -18z m-15305 -47 c22 -5 83 -19 135 -30 127
-29 126 -29 200 -45 36 -8 351 -78 700 -156 349 -78 640 -143 645 -144 6 -2
37 -8 70 -15 33 -7 72 -17 88 -23 28 -11 37 -28 15 -28 -10 0 -9 -3 1 -9 9 -6
10 -11 3 -15 -6 -4 -9 -12 -7 -19 3 -7 7 -34 10 -62 10 -97 19 -148 29 -163 3
-5 7 -21 10 -36 5 -27 73 -176 85 -186 3 -3 13 -18 21 -35 13 -26 168 -188
212 -221 71 -55 259 -137 341 -149 167 -26 251 -24 380 5 133 29 299 117 390
204 21 20 42 36 46 36 7 0 116 -76 201 -140 14 -10 185 -134 380 -276 195
-141 390 -283 433 -316 42 -32 81 -58 86 -58 5 0 11 -3 13 -8 2 -4 32 -28 68
-54 36 -26 70 -51 75 -55 6 -5 66 -49 135 -98 69 -50 132 -95 140 -102 24 -20
530 -387 548 -398 9 -5 21 -14 27 -20 6 -5 28 -21 49 -35 39 -26 38 -23 21
-102 -2 -9 -10 -29 -19 -46 -8 -16 -13 -32 -11 -34 3 -2 -6 -32 -19 -66 -14
-34 -22 -62 -20 -62 3 0 2 -6 -3 -12 -4 -7 -8 -16 -9 -20 -1 -5 -2 -9 -4 -10
-1 -2 -3 -10 -5 -18 -2 -8 -20 -62 -39 -120 -20 -58 -39 -116 -42 -129 -3 -13
-9 -32 -14 -41 -5 -9 -11 -28 -14 -41 -3 -13 -17 -58 -31 -99 -15 -41 -28 -79
-29 -85 -2 -5 -6 -17 -9 -25 -15 -39 -45 -138 -52 -167 -3 -18 -11 -33 -16
-33 -5 0 -8 -3 -7 -7 2 -10 -13 -75 -20 -88 -4 -5 -8 -16 -9 -22 -7 -30 -12
-48 -13 -50 -2 -2 -4 -7 -5 -13 -1 -5 -4 -12 -5 -15 -1 -3 -3 -8 -5 -12 -1 -5
-5 -16 -9 -25 -4 -9 -9 -22 -10 -30 -2 -7 -6 -20 -9 -28 -15 -39 -31 -96 -29
-102 1 -5 -2 -8 -8 -8 -5 0 -7 -7 -4 -15 4 -8 1 -15 -6 -15 -6 0 -9 -4 -6 -8
3 -5 -4 -32 -14 -60 -11 -29 -17 -52 -12 -52 4 0 2 -4 -5 -8 -7 -4 -14 -21
-17 -38 -3 -17 -13 -47 -21 -67 -8 -20 -15 -46 -15 -57 0 -11 -5 -20 -11 -20
-6 0 -9 -7 -6 -15 4 -8 2 -17 -4 -20 -5 -4 -7 -11 -4 -16 4 -5 1 -9 -6 -9 -7
0 -9 -3 -6 -6 3 -4 1 -16 -5 -28 -7 -11 -12 -28 -13 -36 -2 -19 -64 -209 -75
-231 -5 -9 -12 -33 -15 -53 -4 -20 -11 -39 -16 -42 -5 -3 -9 -15 -9 -28 0 -12
-3 -26 -7 -30 -4 -3 -8 -12 -9 -19 -2 -7 -9 -32 -17 -57 l-14 -45 -134 -1
c-150 -1 -180 -5 -294 -41 -81 -26 -152 -61 -235 -116 -43 -29 -209 -187 -196
-187 4 0 -3 -10 -14 -22 -25 -26 -119 -212 -125 -246 -2 -13 -8 -33 -12 -45
-4 -12 -8 -30 -9 -39 -1 -10 -3 -19 -4 -20 -12 -13 -17 -214 -7 -268 5 -25 9
-55 9 -67 0 -13 4 -23 7 -23 4 0 7 -10 7 -23 1 -35 16 -87 25 -87 5 0 9 -8 9
-18 0 -10 6 -26 14 -37 7 -11 14 -24 16 -30 1 -9 38 -74 73 -129 7 -11 44 -52
82 -91 l71 -72 -25 -39 c-13 -21 -28 -40 -33 -42 -4 -2 -8 -9 -8 -15 0 -7 -11
-24 -24 -39 -14 -14 -22 -29 -19 -32 4 -3 1 -6 -5 -6 -7 0 -12 -6 -12 -14 0
-8 -3 -16 -7 -18 -5 -1 -30 -37 -58 -78 -27 -41 -53 -77 -57 -78 -5 -2 -8 -9
-8 -16 0 -7 -8 -21 -17 -32 -27 -30 -83 -114 -83 -123 0 -5 -3 -11 -7 -13 -5
-1 -30 -37 -58 -78 -27 -41 -52 -77 -55 -80 -3 -3 -45 -66 -95 -140 -49 -74
-93 -137 -97 -138 -5 -2 -8 -8 -8 -14 0 -6 -13 -27 -30 -48 -16 -21 -30 -43
-30 -48 0 -6 -8 -16 -17 -21 -10 -6 -14 -11 -10 -11 5 0 -4 -17 -20 -37 -16
-21 -53 -74 -82 -118 -29 -44 -56 -82 -60 -85 -3 -3 -15 -21 -25 -40 -11 -19
-22 -37 -26 -40 -3 -3 -23 -31 -43 -62 -21 -31 -42 -60 -47 -63 -6 -4 -8 -11
-5 -16 4 -5 -1 -12 -9 -15 -9 -3 -16 -12 -16 -20 0 -8 -5 -14 -12 -14 -6 0 -8
-3 -5 -6 4 -4 -3 -15 -15 -25 -11 -11 -18 -19 -14 -19 4 0 -11 -24 -32 -52
-41 -58 -191 -278 -207 -306 -5 -9 -12 -19 -15 -22 -3 -3 -27 -39 -55 -80 -27
-41 -55 -81 -61 -88 -7 -6 -16 -21 -19 -33 -5 -13 -11 -17 -18 -11 -19 14
-156 62 -196 68 -20 3 -55 9 -79 14 -47 8 -203 5 -267 -6 -75 -12 -76 -12 -91
36 -9 25 -18 52 -21 60 -3 8 -5 19 -4 23 0 4 -5 20 -14 36 -8 16 -11 31 -8 35
4 3 1 6 -6 6 -7 0 -10 4 -6 10 3 5 1 17 -4 27 -11 22 -35 105 -33 116 1 4 -2
7 -8 7 -6 0 -9 3 -8 8 1 4 -5 27 -12 52 -8 25 -14 48 -16 53 -1 4 -3 9 -4 12
-1 3 -4 10 -5 15 -1 6 -4 12 -5 15 -1 3 -3 8 -4 13 -2 10 -36 113 -43 132 -8
21 -14 43 -15 58 -1 6 -4 12 -8 12 -4 0 -7 6 -7 13 0 6 -15 57 -33 112 -18 55
-33 106 -33 113 0 6 -4 12 -9 12 -4 0 -8 11 -8 24 0 14 -5 28 -10 31 -6 4 -10
12 -9 18 1 7 0 19 -4 27 -4 12 -46 138 -53 160 -1 3 -5 20 -9 38 -4 17 -12 32
-17 32 -5 0 -6 5 -3 10 3 6 3 16 -2 23 -8 12 -13 32 -15 55 -1 6 -6 12 -11 12
-6 0 -8 3 -5 6 4 3 -4 35 -17 70 -13 35 -21 64 -18 64 3 0 1 6 -5 13 -6 6 -10
14 -11 17 0 3 -2 12 -5 20 -20 64 -110 346 -111 350 -1 3 -4 12 -8 20 -3 8
-11 33 -17 55 -6 22 -14 47 -17 55 -3 8 -7 21 -9 28 -1 8 -6 21 -10 30 -7 18
-11 29 -18 59 -3 10 -5 18 -6 18 -1 0 -3 7 -5 15 -2 8 -16 49 -31 90 -14 41
-27 82 -28 90 -1 9 -4 20 -8 25 -3 6 -13 37 -22 70 -10 33 -22 68 -27 77 -5
10 -9 27 -9 38 0 11 -4 20 -8 20 -5 0 -9 6 -10 13 -1 16 -7 38 -16 59 -4 9 -9
22 -10 30 -6 29 -19 74 -25 83 -3 6 -7 16 -8 22 -6 27 -10 38 -30 91 -3 9 -7
19 -8 22 -23 88 -30 110 -35 110 -4 0 -7 6 -8 13 -3 41 -7 57 -14 57 -4 0 -8
6 -8 14 0 12 -43 152 -57 186 -3 8 -5 21 -4 28 1 6 -2 12 -6 12 -5 0 -10 12
-11 26 -1 14 -5 31 -9 37 -4 7 -8 14 -9 17 0 3 -3 12 -6 20 -3 8 -13 40 -23
70 -9 30 -19 62 -22 70 -3 8 -7 20 -8 25 -1 6 -10 33 -20 60 -9 28 -18 57 -20
65 -2 8 -4 16 -5 18 -2 1 -4 7 -5 12 -1 6 -3 11 -5 13 -2 3 -11 40 -12 55 -1
6 -6 12 -11 12 -6 0 -8 3 -4 6 3 4 0 19 -9 35 -8 16 -12 29 -9 29 4 0 3 6 -2
13 -4 6 -8 14 -9 17 -4 24 -17 69 -24 85 -8 19 -32 91 -36 108 -1 4 -3 9 -4
12 -1 3 -4 10 -5 15 -1 6 -3 12 -4 15 0 3 -1 7 -1 10 -1 2 -7 20 -16 40 -8 19
-14 36 -13 37 0 4 -9 32 -27 81 -8 20 -11 37 -8 37 4 0 2 6 -4 13 -5 6 -12 23
-14 37 -1 14 -7 28 -11 31 -4 3 -10 17 -12 32 -3 14 -35 115 -71 224 -36 109
-67 205 -69 213 -2 8 -4 16 -5 18 -2 1 -3 5 -4 10 -12 44 -29 99 -34 107 -4 6
-7 15 -8 20 -1 6 -17 55 -35 110 -18 55 -32 106 -31 113 2 6 -2 12 -8 12 -5 0
-10 6 -10 14 0 8 -11 46 -24 85 -13 39 -22 71 -20 71 3 0 -2 13 -10 29 -9 16
-12 31 -9 35 4 3 2 6 -3 6 -5 0 -11 12 -12 26 -1 14 -5 31 -9 37 -4 7 -8 15
-9 20 -1 4 -2 8 -3 10 -2 1 -5 13 -7 27 -3 14 -9 27 -14 28 -6 2 -7 8 -4 13 3
6 0 16 -6 24 -7 8 -10 15 -6 15 5 0 -1 19 -30 95 -4 11 -8 22 -9 25 -23 88
-30 110 -35 110 -3 0 -6 8 -7 18 -1 9 -13 51 -28 92 -14 41 -28 84 -29 95 -3
18 -13 47 -33 95 -6 14 -11 41 -15 68 -1 6 -5 12 -10 12 -4 0 -7 3 -7 8 1 4 0
9 -1 12 -1 3 -3 12 -5 20 -3 16 -32 105 -42 130 -3 8 -8 24 -10 34 -2 11 -8
25 -14 33 -6 7 -9 13 -5 13 3 0 0 15 -8 34 -8 19 -12 37 -8 40 3 3 0 6 -7 6
-7 0 -10 4 -6 10 3 5 1 17 -4 27 -9 17 -34 102 -33 113 0 3 -4 10 -8 15 -5 6
-11 22 -14 35 -3 14 -17 59 -31 100 -15 41 -28 82 -30 90 -2 8 -4 16 -5 18 -2
1 -4 7 -5 12 -1 6 -4 13 -5 18 -2 4 -4 12 -5 17 -1 6 -5 17 -8 25 -13 35 -49
143 -51 154 -1 6 -4 16 -7 21 -3 6 -12 33 -19 60 -7 28 -17 55 -22 61 -5 7 -8
16 -7 20 1 5 -3 22 -10 38 -6 16 -13 37 -14 47 -2 10 -6 22 -10 25 -4 4 -7 18
-7 31 0 12 -4 23 -8 23 -5 0 -9 7 -10 15 -1 8 -3 22 -4 30 -1 8 -6 15 -11 15
-6 0 -8 3 -4 6 3 3 -4 31 -15 62 -11 32 -21 64 -23 72 -2 8 -4 15 -5 15 -1 0
-3 7 -5 15 -2 8 -11 38 -20 65 -10 28 -19 55 -20 60 -1 6 -5 17 -8 25 -7 17
-72 224 -76 242 -1 4 -8 23 -16 42 -26 62 -22 69 53 90 187 53 363 173 469
320 21 28 41 54 46 57 5 3 8 9 7 13 0 4 11 28 25 55 l27 48 81 -18 c45 -11
100 -23 122 -28z m5068 -582 c856 -2 1187 -6 1187 -14 0 -6 -6 -17 -12 -24 -9
-10 -9 -12 -1 -7 7 4 6 -4 -3 -23 -8 -17 -17 -40 -19 -52 -7 -35 -27 -93 -36
-105 -5 -6 -6 -14 -3 -17 4 -4 0 -17 -8 -29 -8 -13 -14 -31 -12 -40 1 -10 -1
-18 -6 -18 -4 0 -11 -15 -15 -32 -4 -18 -9 -37 -11 -43 -4 -16 -56 -168 -62
-185 -8 -22 -8 -22 -17 -55 -4 -16 -10 -34 -14 -40 -6 -11 -12 -32 -13 -52 -1
-7 -6 -13 -11 -13 -6 0 -8 -3 -4 -6 3 -4 -1 -23 -9 -43 -9 -20 -17 -43 -19
-51 -7 -33 -39 -126 -46 -136 -5 -6 -6 -14 -2 -17 3 -4 0 -13 -7 -22 -7 -8 -9
-15 -5 -15 4 0 3 -6 -2 -12 -6 -7 -14 -26 -18 -43 -5 -16 -9 -32 -10 -35 -1
-3 -10 -33 -20 -67 -10 -35 -21 -63 -24 -63 -4 0 -8 -12 -9 -27 -1 -15 -6 -31
-11 -36 -5 -5 -7 -16 -4 -23 3 -8 0 -14 -7 -14 -7 0 -10 -7 -6 -15 3 -8 2 -15
-3 -15 -4 0 -8 -6 -8 -12 0 -7 -30 -103 -67 -213 -36 -109 -66 -205 -66 -212
0 -7 -5 -13 -11 -13 -5 0 -8 -4 -5 -9 3 -4 0 -15 -7 -23 -10 -14 -74 29 -447
303 -239 175 -442 322 -450 326 -8 3 -17 9 -20 13 -3 3 -39 30 -80 60 -41 30
-77 57 -80 60 -3 3 -13 10 -22 15 -9 6 -161 116 -338 245 -177 129 -329 240
-338 245 -9 6 -19 12 -22 15 -3 3 -39 30 -80 60 -41 30 -76 58 -78 62 -2 5 -8
8 -13 8 -14 0 -169 120 -169 131 0 12 22 52 35 61 6 4 6 8 1 8 -5 0 -4 6 1 13
12 14 49 126 58 172 3 17 8 37 10 45 2 8 4 20 4 25 1 6 51 9 134 9 72 -1 666
-3 1320 -5z m2974 -8 l532 -1 16 -30 c8 -16 15 -31 14 -32 -1 -2 13 -50 32
-108 18 -58 32 -108 31 -112 -1 -5 3 -8 9 -8 5 0 8 -4 4 -9 -3 -5 -1 -12 4
-16 6 -3 8 -12 4 -20 -3 -8 1 -15 8 -15 7 0 10 -3 6 -6 -3 -4 0 -22 8 -40 8
-19 15 -38 16 -42 3 -12 6 -23 34 -107 14 -44 27 -87 30 -95 2 -8 4 -16 5 -17
2 -2 3 -6 4 -10 6 -27 60 -190 66 -198 4 -5 6 -18 5 -27 -2 -10 0 -18 5 -18 5
0 11 -18 15 -40 4 -22 12 -40 18 -40 5 0 8 -3 4 -6 -3 -3 1 -25 10 -47 8 -23
16 -50 18 -59 2 -9 9 -26 15 -37 6 -12 8 -21 4 -21 -3 0 -1 -7 6 -15 7 -8 9
-15 5 -15 -4 0 -2 -7 5 -15 7 -9 10 -18 7 -22 -4 -3 -3 -11 2 -17 8 -11 31
-75 35 -99 1 -7 8 -22 14 -34 7 -13 10 -23 7 -23 -4 0 -3 -6 2 -12 4 -7 9 -20
11 -28 1 -8 4 -20 5 -27 2 -7 6 -16 10 -19 4 -4 7 -16 7 -26 0 -10 4 -26 9
-36 11 -19 23 -51 27 -69 6 -29 27 -89 35 -99 5 -6 6 -14 3 -17 -3 -3 -2 -12
2 -19 5 -7 9 -16 10 -20 1 -5 3 -10 4 -13 4 -8 7 -17 15 -53 4 -18 12 -35 16
-38 5 -3 6 -10 3 -16 -4 -6 -2 -13 4 -17 6 -4 14 -22 17 -40 3 -19 8 -38 11
-42 3 -6 -250 -198 -356 -269 -12 -8 -28 -20 -34 -25 -6 -6 -27 -22 -46 -35
-19 -13 -37 -27 -40 -30 -3 -3 -27 -21 -55 -40 -27 -19 -54 -38 -60 -42 -16
-14 -151 -112 -175 -128 -12 -8 -28 -21 -36 -27 -7 -7 -17 -13 -23 -13 -6 0
-11 -3 -11 -7 0 -5 -17 -19 -38 -33 -20 -14 -42 -29 -48 -35 -6 -5 -36 -28
-68 -50 -31 -22 -89 -64 -129 -93 -39 -29 -81 -60 -92 -68 -79 -56 -283 -207
-298 -219 -9 -8 -20 -15 -22 -15 -5 0 -82 -57 -122 -90 -7 -6 -16 -10 -22 -10
-5 0 -12 -7 -15 -16 -3 -9 -13 -14 -21 -10 -13 5 -193 133 -205 146 -3 3 -27
21 -55 40 -27 19 -54 38 -60 43 -16 13 -235 171 -252 182 -9 6 -24 16 -32 22
-15 12 -243 179 -300 220 -14 10 -44 33 -68 51 -24 17 -47 32 -52 32 -5 0 -11
4 -13 8 -1 4 -43 37 -93 72 -49 36 -92 67 -95 71 -3 3 -27 20 -55 39 -27 19
-52 36 -55 39 -3 4 -45 35 -95 71 -49 35 -131 95 -182 132 l-92 68 10 32 c6
18 14 42 19 53 8 19 43 125 45 135 3 20 30 88 39 99 9 12 8 13 -4 6 -11 -7
-10 -2 3 19 10 15 16 30 13 33 -3 4 -2 11 3 17 4 6 18 43 30 81 12 39 23 75
25 80 2 6 4 12 4 15 1 3 15 44 32 92 16 49 30 95 30 103 0 8 5 15 11 15 5 0 7
5 4 10 -4 6 -3 16 2 23 11 14 49 139 45 150 -1 4 3 7 10 7 6 0 9 3 6 6 -4 3 0
20 7 39 8 18 11 35 8 39 -4 3 0 6 7 6 7 0 11 3 7 6 -3 4 0 19 8 35 9 16 15 32
14 36 -1 4 0 10 1 13 1 3 3 12 5 20 2 8 9 29 16 45 7 17 13 33 14 38 2 4 4 8
5 10 1 1 4 11 5 22 2 11 8 34 15 50 7 17 14 35 15 40 1 6 3 13 5 18 1 4 3 10
4 15 9 39 73 218 79 220 4 2 5 7 2 12 -3 4 2 24 10 43 8 19 11 37 8 41 -4 3
-1 6 5 6 6 0 9 7 6 15 -4 8 -1 15 6 15 7 0 10 7 6 15 -3 8 0 15 6 15 6 0 9 3
6 6 -3 3 7 42 23 87 16 45 29 83 29 85 -1 48 -9 47 536 45 280 -1 749 -2 1041
-2z m3190 -10 c118 -1 132 -3 132 -18 1 -67 58 -260 86 -293 30 -36 22 -51
-65 -110 -34 -24 -314 -228 -327 -240 -7 -5 -15 -10 -18 -10 -4 0 -12 -6 -20
-12 -29 -28 -56 -48 -64 -48 -5 0 -11 -4 -13 -8 -1 -4 -25 -23 -53 -42 -27
-19 -55 -39 -61 -45 -6 -5 -22 -18 -35 -27 -13 -10 -123 -90 -244 -178 -273
-198 -240 -174 -367 -267 -59 -43 -160 -116 -224 -163 -64 -47 -157 -115 -208
-152 -50 -37 -109 -80 -131 -96 -22 -16 -77 -56 -121 -89 -79 -59 -82 -60 -92
-39 -9 17 -31 81 -37 106 -1 3 -5 13 -9 22 -4 9 -9 22 -10 30 -8 38 -20 74
-28 85 -5 7 -7 17 -3 23 3 5 1 10 -6 10 -7 0 -10 3 -7 6 4 3 0 21 -8 40 -8 19
-12 34 -9 34 3 0 -2 11 -11 25 -9 14 -14 25 -11 25 3 0 -5 29 -18 65 -13 36
-21 65 -18 65 3 0 0 6 -6 13 -6 8 -8 17 -4 20 3 4 1 7 -5 7 -6 0 -9 7 -6 15 4
8 2 15 -3 15 -5 0 -9 8 -10 18 -2 31 -8 46 -21 60 -7 8 -10 18 -6 23 3 6 2 15
-4 22 -5 7 -15 35 -22 62 -7 28 -17 54 -21 60 -5 5 -9 22 -9 37 0 15 -4 28 -8
28 -8 0 -31 74 -34 108 -1 6 -5 12 -10 12 -6 0 -8 6 -5 13 2 6 -4 31 -14 54
-10 22 -15 44 -12 47 4 3 0 6 -7 6 -7 0 -11 3 -7 6 3 4 0 22 -8 40 -8 19 -11
34 -8 34 3 0 0 7 -7 15 -7 8 -9 15 -4 15 4 0 3 5 -4 12 -7 7 -12 20 -12 30 0
10 -4 26 -9 36 -10 19 -110 318 -115 342 -1 8 -6 24 -10 35 -27 69 -35 95 -30
95 4 0 1 6 -5 14 -12 15 250 15 2426 7z m-1921 -2227 c1 -9 6 -23 10 -32 4 -9
8 -20 9 -24 2 -5 4 -10 5 -13 1 -3 4 -9 5 -15 1 -5 3 -11 5 -12 1 -2 3 -11 6
-20 7 -30 11 -42 17 -58 21 -49 54 -160 49 -164 -3 -4 -1 -6 5 -6 5 0 10 -6
11 -12 1 -21 7 -42 13 -53 4 -5 9 -22 13 -37 3 -15 11 -40 18 -55 6 -15 12
-33 14 -40 4 -20 25 -87 34 -108 16 -38 23 -60 26 -84 2 -13 8 -29 13 -34 6
-6 11 -19 11 -28 0 -10 5 -30 12 -46 6 -15 10 -34 9 -40 -1 -7 4 -13 10 -13 7
0 10 -2 7 -6 -3 -3 5 -35 19 -72 13 -37 25 -76 27 -87 2 -11 18 -59 34 -107
17 -47 28 -89 24 -92 -3 -3 0 -6 7 -6 7 0 9 -4 6 -10 -3 -5 -2 -10 4 -10 5 0
8 -8 7 -17 -2 -9 3 -28 11 -42 7 -15 13 -34 13 -43 0 -9 5 -20 11 -23 5 -4 8
-12 6 -18 -2 -6 2 -23 9 -36 7 -14 11 -28 8 -33 -3 -4 -1 -8 4 -8 5 0 9 -6 10
-12 1 -16 7 -37 16 -63 5 -11 10 -27 13 -35 4 -8 7 -22 9 -31 2 -9 9 -29 15
-45 7 -16 13 -33 14 -39 1 -5 3 -12 4 -15 2 -3 4 -12 6 -20 8 -37 10 -45 17
-50 4 -3 8 -17 10 -30 2 -14 6 -29 9 -35 7 -11 49 -141 54 -165 2 -8 4 -16 5
-17 2 -2 3 -6 4 -10 1 -5 5 -14 9 -20 5 -7 5 -17 2 -23 -3 -5 -2 -10 3 -10 8
0 32 -72 36 -105 1 -5 3 -12 6 -15 3 -3 16 -38 29 -79 20 -61 22 -74 10 -82
-8 -5 -18 -9 -22 -9 -5 0 -23 -11 -41 -25 -18 -14 -36 -25 -40 -25 -14 0 -192
-170 -178 -170 4 0 -1 -5 -10 -11 -17 -9 -82 35 -453 307 -11 8 -200 145 -420
305 -220 160 -410 298 -422 307 -12 9 -31 24 -43 32 -37 26 -234 169 -250 183
-9 6 -38 28 -65 46 -28 19 -52 37 -55 40 -3 4 -12 11 -21 16 -9 6 -63 44 -119
85 -56 41 -109 80 -118 85 -9 6 -19 12 -22 16 -3 3 -26 20 -52 39 -27 18 -48
37 -48 41 0 5 21 23 47 41 53 36 168 121 196 143 9 8 21 15 26 15 5 0 11 4 13
8 2 4 57 47 123 94 66 47 162 117 213 155 51 37 120 88 155 113 34 25 69 50
77 57 74 60 745 541 749 537 3 -2 6 -12 7 -20z m-3387 -111 c80 -59 181 -133
224 -165 42 -32 81 -58 86 -58 5 0 11 -4 13 -8 2 -4 64 -52 138 -105 74 -54
142 -103 150 -110 8 -7 44 -33 80 -57 36 -25 67 -47 70 -51 3 -3 45 -34 95
-70 49 -35 97 -70 105 -76 8 -7 36 -28 62 -45 25 -18 92 -67 148 -108 57 -41
110 -79 119 -85 9 -5 18 -12 21 -16 3 -3 26 -20 53 -39 26 -18 47 -36 47 -39
0 -4 -37 -33 -82 -66 -46 -32 -84 -63 -86 -67 -2 -4 -10 -8 -18 -8 -8 0 -14
-4 -14 -8 0 -4 -15 -16 -32 -27 -18 -10 -44 -29 -58 -42 -14 -13 -28 -23 -32
-23 -3 0 -13 -6 -20 -13 -13 -12 -227 -170 -377 -276 -41 -30 -79 -57 -85 -62
-6 -5 -51 -39 -101 -75 -49 -35 -98 -71 -108 -79 -9 -8 -19 -15 -22 -15 -3 0
-13 -7 -22 -15 -10 -8 -76 -57 -148 -109 -71 -52 -134 -99 -140 -103 -5 -5
-41 -31 -80 -58 -38 -27 -77 -55 -85 -62 -8 -7 -69 -52 -135 -100 -66 -47
-142 -102 -170 -123 -27 -20 -87 -64 -133 -98 l-83 -61 -64 62 c-81 79 -112
103 -198 152 -39 23 -71 48 -73 58 -1 9 2 17 6 17 5 0 7 9 5 20 -2 11 1 20 6
20 6 0 7 5 4 10 -3 6 -1 10 4 10 6 0 10 3 9 8 -1 4 9 41 22 82 13 41 24 77 25
80 0 3 9 30 20 60 11 30 20 58 21 63 1 4 3 8 4 10 1 1 4 11 6 22 1 11 16 57
32 102 17 45 28 84 24 87 -3 3 0 6 7 6 7 0 10 4 7 8 -3 5 1 19 8 33 7 13 11
30 8 37 -2 6 2 12 9 12 7 0 10 3 6 6 -3 3 4 31 15 62 11 32 21 64 22 72 1 9 5
20 8 25 7 12 28 77 29 90 0 6 4 15 8 20 5 6 12 24 16 40 4 17 9 37 11 45 2 8
17 52 33 98 16 45 27 82 24 82 -3 0 -1 6 4 13 9 10 24 57 27 79 1 3 4 10 9 14
4 4 7 17 7 29 0 11 4 25 8 30 5 6 14 30 21 54 7 25 18 56 24 70 5 14 10 29 9
33 -1 4 5 22 13 41 8 19 11 37 8 41 -4 3 -2 6 4 6 5 0 10 6 10 13 1 6 20 68
43 137 23 69 43 132 46 140 7 30 56 175 64 195 8 18 21 59 26 78 1 4 3 9 4 12
1 3 3 8 4 13 1 4 10 32 20 62 10 30 19 61 22 69 6 20 23 10 183 -106z m1641
-1192 c3 -4 46 -36 95 -71 50 -36 92 -67 95 -71 3 -3 27 -21 55 -39 44 -31
164 -117 190 -138 6 -4 32 -23 60 -42 27 -19 56 -41 65 -47 13 -11 239 -175
525 -383 39 -27 75 -54 80 -58 6 -5 39 -29 75 -55 36 -25 70 -50 75 -54 6 -5
33 -24 60 -43 28 -19 52 -37 55 -40 3 -4 91 -68 195 -143 105 -75 195 -141
201 -146 6 -4 35 -26 65 -47 30 -21 56 -41 59 -44 3 -3 28 -21 55 -40 28 -19
55 -38 60 -43 6 -4 18 -13 27 -20 16 -11 16 -16 -3 -72 -10 -32 -21 -68 -24
-80 -2 -11 -7 -31 -10 -45 -3 -14 -7 -47 -9 -75 -2 -27 -5 -54 -6 -60 -1 -5
-2 -12 -1 -15 1 -3 4 -36 7 -75 6 -90 9 -113 16 -121 4 -3 4 -12 2 -19 -3 -7
0 -16 5 -20 6 -3 9 -10 6 -15 -9 -15 98 -249 124 -270 3 -3 18 -21 33 -41 123
-165 340 -291 558 -325 121 -19 289 -5 403 32 54 18 51 19 99 -56 12 -19 28
-41 35 -48 7 -7 13 -19 13 -27 0 -7 7 -15 15 -19 8 -3 15 -12 15 -21 0 -8 4
-15 9 -15 5 0 14 -13 21 -30 7 -17 16 -30 20 -30 3 0 13 -12 21 -27 8 -16 21
-36 30 -46 9 -9 22 -30 30 -45 8 -15 17 -29 20 -32 5 -4 247 -360 289 -424 8
-13 56 -83 106 -157 50 -74 137 -204 195 -289 57 -85 112 -164 122 -174 9 -11
17 -25 17 -30 0 -6 10 -23 23 -37 12 -14 27 -33 32 -42 30 -50 251 -373 257
-375 5 -2 8 -10 8 -18 0 -8 5 -14 10 -14 6 0 10 -7 10 -15 0 -8 5 -15 12 -15
6 0 8 -3 5 -6 -4 -4 3 -15 14 -25 11 -9 20 -20 19 -24 -1 -4 7 -17 18 -30 11
-13 18 -26 15 -29 -4 -3 -2 -6 4 -6 6 0 16 -14 23 -30 7 -16 16 -30 21 -30 26
0 0 -38 -79 -117 -101 -101 -114 -119 -170 -228 -50 -97 -82 -196 -85 -262 -1
-13 -3 -23 -6 -23 -4 0 -6 -30 -6 -68 1 -37 -1 -72 -2 -77 -3 -8 -1367 -10
-4470 -8 -2457 2 -4468 5 -4469 6 -1 1 -4 38 -7 82 -4 44 -9 91 -12 105 -3 14
-7 37 -10 52 -3 15 -9 38 -15 52 -5 15 -8 26 -6 26 9 0 -77 165 -113 219 -21
31 -64 82 -95 113 -54 53 -65 72 -48 80 4 2 34 44 67 93 33 50 67 99 77 109 9
10 15 23 12 28 -3 4 -1 8 5 8 6 0 18 14 27 32 16 30 24 43 52 73 7 8 11 15 7
15 -4 0 1 7 9 16 9 8 28 35 42 60 14 24 30 44 36 44 5 0 7 4 4 9 -3 5 1 15 10
22 8 7 22 26 31 43 9 17 19 33 22 36 3 3 24 32 46 65 22 33 46 66 53 73 6 7
12 19 12 27 0 7 3 15 8 17 11 5 82 107 82 118 0 6 5 10 10 10 6 0 10 5 10 10
0 6 5 16 10 23 41 48 50 62 50 74 0 7 4 13 8 13 4 0 16 15 27 33 10 17 21 34
24 37 4 3 25 34 48 70 24 36 46 70 50 75 5 6 26 37 48 70 22 33 48 69 57 79
10 10 15 23 12 27 -2 4 1 11 8 16 7 4 49 62 93 128 44 66 86 126 93 133 6 7
12 17 12 22 0 5 6 15 13 22 6 8 17 21 22 30 6 9 60 89 120 178 61 88 115 169
120 178 6 9 12 19 15 22 3 3 19 25 35 50 49 73 45 72 113 44 182 -73 455 -77
622 -8 62 26 165 79 168 87 2 4 8 7 14 7 5 0 15 6 23 13 7 6 28 23 46 37 75
57 219 232 219 266 0 7 5 14 10 16 6 2 12 14 15 27 2 14 10 28 16 31 6 4 10
11 10 16 -1 5 7 32 16 59 9 28 18 57 20 65 20 95 24 283 8 360 -7 33 -11 60
-8 60 2 0 1 6 -4 13 -4 6 -8 14 -8 17 -2 17 -29 88 -41 107 -12 19 -11 23 14
39 15 9 31 23 35 31 4 7 14 13 22 13 7 0 15 4 17 8 2 4 25 23 53 42 27 19 55
40 61 45 7 6 22 18 35 27 13 9 120 87 237 172 117 86 217 156 223 156 5 0 9 4
9 8 0 7 108 89 168 127 8 6 25 18 36 27 12 9 127 93 256 187 129 94 244 178
255 186 78 62 333 247 348 251 9 4 17 9 17 13 0 3 18 17 40 31 22 14 40 28 40
32 0 5 5 8 10 8 6 0 18 7 28 16 9 8 55 44 102 78 73 54 88 61 110 54 13 -5 27
-13 30 -17z"/>
</g>
</svg>
